<?xml version="1.0" encoding="UTF-8"?>
<svg width="20px" height="21px" viewBox="0 0 20 21" version="1.1" xmlns="http://www.w3.org/2000/svg" xmlns:xlink="http://www.w3.org/1999/xlink">
    <title>Group 3</title>
    <defs>
        <filter color-interpolation-filters="auto" id="filter-1">
            <feColorMatrix in="SourceGraphic" type="matrix" values="0 0 0 0 0.996078 0 0 0 0 0.996078 0 0 0 0 0.996078 0 0 0 1.000000 0"></feColorMatrix>
        </filter>
    </defs>
    <g id="index" stroke="none" stroke-width="1" fill="none" fill-rule="evenodd">
        <g id="index_pc" transform="translate(-390.000000, -278.000000)">
            <g id="main_cont_left" transform="translate(360.000000, 205.500000)">
                <g id="main_cont_left_tit_wrap" transform="translate(30.000000, 30.000000)">
                    <g id="main_cont_left_tit" transform="translate(0.000000, 30.000000)">
                        <g id="Group-3" transform="translate(0.000000, 13.000000)">
                            <circle id="coin_icon" fill="#18191C" cx="10" cy="10" r="10"></circle>
                            <g id="icon/bitcoin" filter="url(#filter-1)">
                                <g id="bitcoin_icon" transform="translate(5.000000, 3.000000)" fill="#000000" fill-rule="nonzero">
                                    <path d="M9.83333333,4.5 C9.83333333,2.83333333 8.5,1.5 6.83333333,1.5 L6.77777778,1.5 L6.77777778,0.277777778 L5.05555556,0.277777778 L5.05555556,1.5 L3.11111111,1.5 L3.11111111,0.277777778 L1.38888889,0.277777778 L1.38888889,1.5 L0.166666667,1.5 L0.166666667,3.22222222 L1.38888889,3.22222222 L1.38888889,5.83333333 L1.38888889,7.5 L1.38888889,10.1111111 L0.166666667,10.1111111 L0.166666667,11.8333333 L1.38888889,11.8333333 L1.38888889,13.0555556 L3.11111111,13.0555556 L3.11111111,11.8333333 L5,11.8333333 L5,13.0555556 L6.72222222,13.0555556 L6.72222222,11.8333333 L6.77777778,11.8333333 C8.44444444,11.8333333 9.77777778,10.5 9.77777778,8.83333333 C9.77777778,8 9.38888889,7.22222222 8.83333333,6.66666667 C9.44444444,6.11111111 9.83333333,5.33333333 9.83333333,4.5 Z M6.83333333,10.1111111 L3.11111111,10.1111111 L3.11111111,7.55555556 L6.77777778,7.55555556 C7.5,7.55555556 8.05555556,8.11111111 8.05555556,8.83333333 C8.05555556,9.55555556 7.5,10.1111111 6.83333333,10.1111111 Z M6.83333333,5.77777778 L3.11111111,5.77777778 L3.11111111,3.22222222 L6.77777778,3.22222222 C7.5,3.22222222 8.05555556,3.77777778 8.05555556,4.5 C8.05555556,5.22222222 7.5,5.77777778 6.83333333,5.77777778 Z" id="Shape"></path>
                                </g>
                            </g>
                        </g>
                    </g>
                </g>
            </g>
        </g>
    </g>
</svg>