<?xml version="1.0" encoding="UTF-8"?>
<svg width="21px" height="21px" viewBox="0 0 21 21" version="1.1" xmlns="http://www.w3.org/2000/svg" xmlns:xlink="http://www.w3.org/1999/xlink">
    <title>Group 5</title>
    <defs>
        <filter color-interpolation-filters="auto" id="filter-1">
            <feColorMatrix in="SourceGraphic" type="matrix" values="0 0 0 0 0.996078 0 0 0 0 0.996078 0 0 0 0 0.996078 0 0 0 1.000000 0"></feColorMatrix>
        </filter>
    </defs>
    <g id="index" stroke="none" stroke-width="1" fill="none" fill-rule="evenodd">
        <g id="index_pc" transform="translate(-361.000000, -1683.000000)">
            <g id="cont_left" transform="translate(361.000000, 747.500000)">
                <g id="con3_info" transform="translate(0.000000, 745.000000)">
                    <g id="con3_art2" transform="translate(0.000000, 165.000000)">
                        <g id="coin_tit" transform="translate(0.500000, 20.000000)">
                            <g id="Group-5" transform="translate(0.000000, 6.000000)">
                                <rect id="coin_icon_frame" fill="#18191C" x="0" y="0" width="20" height="20" rx="10"></rect>
                                <g id="icon/wiken" filter="url(#filter-1)">
                                    <g id="Group" transform="translate(5.000000, 4.000000)" fill="#5D5E60" fill-rule="nonzero">
                                        <path d="M1.5,12 L1.5,12 C0.671438368,12 0,11.3642835 0,10.5803468 L0,1.41965318 C0,0.635473076 0.671695525,0 1.5,0 L1.5,0 C2.32856163,0 3,0.635716459 3,1.41965318 L3,10.5803468 C3,11.3642835 2.32856163,12 1.5,12 Z" id="Path"></path>
                                        <path d="M5.5,10 L5.5,10 C4.67143837,10 4,9.39613917 4,8.65148538 L4,3.34851462 C4,2.60362964 4.67169553,2 5.5,2 L5.5,2 C6.32856163,2 7,2.60386083 7,3.34851462 L7,8.65125419 C7,9.39613917 6.32856163,10 5.5,10 Z" id="Path"></path>
                                        <path d="M9.5,12 L9.5,12 C8.67143837,12 8,11.4202963 8,10.7054319 L8,5.29456805 C8,4.57948177 8.67169553,4 9.5,4 L9.5,4 C10.3285616,4 11,4.57970371 11,5.29456805 L11,10.7054319 C11,11.4202963 10.3283045,12 9.5,12 Z" id="Path"></path>
                                        <circle id="Oval" cx="9.5" cy="1.5" r="1.5"></circle>
                                    </g>
                                </g>
                            </g>
                        </g>
                    </g>
                </g>
            </g>
        </g>
    </g>
</svg>