<?xml version="1.0" encoding="UTF-8"?>
<svg width="40px" height="40px" viewBox="0 0 40 40" version="1.1" xmlns="http://www.w3.org/2000/svg" xmlns:xlink="http://www.w3.org/1999/xlink">
    <title>icon-kocobit_app</title>
    <g id="index" stroke="none" stroke-width="1" fill="none" fill-rule="evenodd">
        <g id="index_mobile" transform="translate(-79.000000, -61.000000)">
            <g id="con1" transform="translate(64.000000, 49.000000)">
                <g id="icon-kocobit_app" transform="translate(15.000000, 12.000000)">
                    <rect id="Rectangle" fill="#FEFEFE" x="0" y="0" width="40" height="40" rx="5"></rect>
                    <g id="k." transform="translate(7.000000, 7.000000)" fill-rule="nonzero">
                        <polygon id="k" fill="#18191C" points="5.34 25.2 5.34 21.15 7.47 18.75 11.76 25.2 17.85 25.2 10.74 15.12 17.49 7.62 11.55 7.62 5.34 14.79 5.34 0 0 0 0 25.2"></polygon>
                        <path d="M22.41,25.44 C24.12,25.44 25.38,24.15 25.38,22.44 C25.38,20.73 24.12,19.44 22.41,19.44 C20.67,19.44 19.41,20.73 19.41,22.44 C19.41,24.15 20.67,25.44 22.41,25.44 Z" id="." fill="#0F77F6"></path>
                    </g>
                </g>
            </g>
        </g>
    </g>
</svg>