<?xml version="1.0" encoding="UTF-8"?>
<svg width="24px" height="24px" viewBox="0 0 24 24" version="1.1" xmlns="http://www.w3.org/2000/svg" xmlns:xlink="http://www.w3.org/1999/xlink">
    <title>icon-noti</title>
    <defs>
        <filter color-interpolation-filters="auto" id="filter-1">
            <feColorMatrix in="SourceGraphic" type="matrix" values="0 0 0 0 0.490196 0 0 0 0 0.490196 0 0 0 0 0.490196 0 0 0 1.000000 0"></feColorMatrix>
        </filter>
    </defs>
    <g id="index" stroke="none" stroke-width="1" fill="none" fill-rule="evenodd">
        <g id="index_pc" transform="translate(-1409.000000, -38.000000)">
            <g id="icon-noti" transform="translate(240.000000, 0.000000)" filter="url(#filter-1)">
                <g transform="translate(1169.000000, 38.000000)">
                    <path d="M22.7272504,0.573922375 C21.9481483,-0.0186911822 20.9891628,-0.160153773 20.0962328,0.185856078 L7.01014917,5.25429504 L1.65138967,5.25429504 C0.740766225,5.25429504 0,6.05464195 0,7.0385079 L0,15.2930412 C0,16.2769072 0.740766225,17.0772541 1.65138967,17.0772541 L4.43751997,17.0772541 L4.43751997,19.7159775 C4.43751997,22.0781479 6.21630256,24 8.40262453,24 L9.66593763,24 C11.8522596,24 13.6310422,22.0781479 13.6310422,19.7159775 L13.6310422,19.5878965 L20.1139262,22.0475614 L20.1139262,22.0475614 C20.4294596,22.1673585 20.7526602,22.2259826 21.0735016,22.2259826 C21.6585654,22.2259826 22.2347824,22.029082 22.7349176,21.6461135 C23.5269948,21.0394811 24,20.0409591 24,18.9755291 L24,3.25024166 C24,2.18035117 23.5240459,1.17991753 22.7272504,0.573922375 Z M1.88730248,7.29339545 L6.23104711,7.29339545 L6.23104711,15.0381537 L1.88730248,15.0381537 L1.88730248,7.29339545 Z M11.7437397,19.7159775 C11.7437397,20.9540938 10.8112943,21.9608996 9.66593763,21.9608996 L8.40262453,21.9608996 C7.25667805,21.9608996 6.32482245,20.9534565 6.32482245,19.7159775 L6.32482245,17.0772541 L7.01368786,17.0772541 L11.7437397,18.8716625 L11.7437397,19.7159775 L11.7437397,19.7159775 Z M22.1126975,18.9755291 C22.1126975,19.3871725 21.9416607,19.7542106 21.6438208,19.982335 C21.4857592,20.1034066 21.15902,20.2818278 20.739685,20.1231603 L8.11834959,15.3350977 L8.11834959,6.9913537 L20.7331974,2.10515934 C21.1531222,1.94266853 21.4822205,2.12045259 21.6408719,2.24152418 C21.9404812,2.46964854 22.1126975,2.83732383 22.1126975,3.25024166 L22.1126975,18.9755291 Z" id="Shape" fill="#666666" fill-rule="nonzero"></path>
                </g>
            </g>
        </g>
    </g>
</svg>