<?xml version="1.0" encoding="UTF-8"?>
<svg width="116px" height="40px" viewBox="0 0 116 40" version="1.1" xmlns="http://www.w3.org/2000/svg" xmlns:xlink="http://www.w3.org/1999/xlink">
    <title>main_logo</title>
    <g id="index" stroke="none" stroke-width="1" fill="none" fill-rule="evenodd">
        <g id="index_pc" transform="translate(-360.000000, -30.000000)">
            <g id="main_logo" transform="translate(360.000000, 30.000000)">
                <rect id="Rectangle" fill="#FEFEFE" x="0" y="0" width="116" height="40"></rect>
                <g id="kocobit." transform="translate(2.000000, 9.000000)" fill-rule="nonzero">
                    <path d="M4.628,22.594 L4.628,19.084 L6.474,17.004 L10.192,22.594 L15.47,22.594 L9.308,13.858 L15.158,7.358 L10.01,7.358 L4.628,13.572 L4.628,0.754 L0,0.754 L0,22.594 L4.628,22.594 Z M23.556,22.958 C28.262,22.958 31.642,19.604 31.642,14.976 C31.642,10.348 28.262,6.994 23.556,6.994 C18.85,6.994 15.47,10.348 15.47,14.976 C15.47,19.604 18.85,22.958 23.556,22.958 Z M23.556,19.006 C21.372,19.006 19.942,17.316 19.942,14.976 C19.942,12.636 21.372,10.946 23.556,10.946 C25.74,10.946 27.17,12.636 27.17,14.976 C27.17,17.316 25.74,19.006 23.556,19.006 Z M41.652,22.958 C45.5,22.958 48.464,20.644 49.244,17.108 L44.564,17.108 C44.148,18.2 43.082,18.928 41.652,18.928 C39.494,18.928 38.09,17.264 38.09,14.976 C38.09,12.688 39.494,11.024 41.652,11.024 C43.108,11.024 44.122,11.752 44.486,12.792 L49.166,12.792 C48.62,9.542 45.63,6.994 41.652,6.994 C36.946,6.994 33.566,10.348 33.566,14.976 C33.566,19.604 36.946,22.958 41.652,22.958 Z M59.046,22.958 C63.752,22.958 67.132,19.604 67.132,14.976 C67.132,10.348 63.752,6.994 59.046,6.994 C54.34,6.994 50.96,10.348 50.96,14.976 C50.96,19.604 54.34,22.958 59.046,22.958 Z M59.046,19.006 C56.862,19.006 55.432,17.316 55.432,14.976 C55.432,12.636 56.862,10.946 59.046,10.946 C61.23,10.946 62.66,12.636 62.66,14.976 C62.66,17.316 61.23,19.006 59.046,19.006 Z M78.832,22.958 C83.2,22.958 86.242,19.604 86.242,14.976 C86.242,10.348 83.2,6.994 78.832,6.994 C76.83,6.994 75.374,7.696 74.464,8.918 L74.464,0.754 L69.836,0.754 L69.836,22.594 L74.464,22.594 L74.464,21.034 C75.374,22.256 76.83,22.958 78.832,22.958 Z M78.104,19.006 C75.842,19.006 74.386,17.316 74.386,14.976 C74.386,12.636 75.842,10.946 78.104,10.946 C80.314,10.946 81.718,12.636 81.718,14.976 C81.718,17.316 80.314,19.006 78.104,19.006 Z M91.26,5.668 C92.898,5.668 94.094,4.472 94.094,2.834 C94.094,1.196 92.898,0 91.26,0 C89.622,0 88.426,1.196 88.426,2.834 C88.426,4.472 89.622,5.668 91.26,5.668 Z M93.574,22.646 L93.574,7.358 L88.946,7.358 L88.946,22.646 L93.574,22.646 Z M103.376,22.594 L103.376,11.336 L106.392,11.336 L106.392,7.358 L103.376,7.358 L103.376,2.834 L98.748,2.834 L98.748,7.358 L95.732,7.358 L95.732,11.336 L98.748,11.336 L98.748,22.594 L103.376,22.594 Z" id="kocobit" fill="#18191C"></path>
                    <path d="M109.72,22.802 C111.202,22.802 112.294,21.684 112.294,20.202 C112.294,18.72 111.202,17.602 109.72,17.602 C108.212,17.602 107.12,18.72 107.12,20.202 C107.12,21.684 108.212,22.802 109.72,22.802 Z" id="." fill="#0F77F6"></path>
                </g>
            </g>
        </g>
    </g>
</svg>