<?xml version="1.0" encoding="utf-8"?>
<!-- Generator: Adobe Illustrator 25.4.1, SVG Export Plug-In . SVG Version: 6.00 Build 0)  -->
<svg version="1.1" id="Layer_1" xmlns="http://www.w3.org/2000/svg" xmlns:xlink="http://www.w3.org/1999/xlink" x="0px" y="0px"
	 viewBox="0 0 468 200" style="enable-background:new 0 0 468 200;" xml:space="preserve">
<style type="text/css">
	.st0{fill-rule:evenodd;clip-rule:evenodd;fill:#0F77F6;}
	.st1{fill:#FEFEFE;}
	.st2{fill:url(#SVGID_1_);}
	.st3{fill:url(#SVGID_00000121999786711837570270000000907148634546224294_);}
	.st4{enable-background:new    ;}
	.st5{fill:#7AA9ED;}
	.st6{fill:url(#SVGID_00000183962605676854531590000012613611493561522862_);}
	.st7{fill:#3373F2;stroke:#3373F2;stroke-width:0.25;stroke-miterlimit:10;enable-background:new    ;}
	.st8{fill:#3373F2;enable-background:new    ;}
</style>
<g id="index">
	<g id="con4-bnr5">
		
			<image style="overflow:visible;enable-background:new    ;" width="882" height="774" id="리ᄋ_x116F_드-이ᄇ_x1166_ᆫ트-이미지" xlink:href="453125A18B3E7B64.png"  transform="matrix(0.2429 0 0 0.2429 20.5417 6)">
		</image>
		<path id="Rectangle" class="st0" d="M0.8,21h58c8.3,0,15,6.7,15,15l0,0c0,8.3-6.7,15-15,15h-58c-8.3,0-15-6.7-15-15l0,0
			C-14.2,27.7-7.5,21,0.8,21z"/>
		<path id="상시이벤트" class="st1" d="M11.1,36.6v-2.7h1.5v-1.2h-1.5V30H9.7v6.6H11.1z M2.8,36.3C3.4,36,4,35.6,4.4,35.2
			c0.5-0.4,0.9-1,1.2-1.5c0.4,0.6,0.8,1.1,1.2,1.5c0.5,0.4,0.9,0.7,1.4,0.9l0,0L9,35c-0.3-0.1-0.7-0.3-1-0.6
			c-0.3-0.2-0.6-0.5-0.9-0.8c-0.2-0.3-0.4-0.6-0.6-1c-0.2-0.4-0.2-0.8-0.2-1.2l0,0v-0.8H4.8v0.9c0,0.4-0.1,0.8-0.2,1.2
			c-0.1,0.4-0.3,0.7-0.6,1s-0.5,0.6-0.9,0.9c-0.3,0.3-0.7,0.5-1.1,0.7l0,0L2.8,36.3z M7.4,41c1.3,0,2.3-0.2,2.9-0.6
			c0.7-0.4,1-0.9,1-1.6s-0.3-1.2-1-1.6c-0.7-0.4-1.6-0.5-2.9-0.5c-1.3,0-2.3,0.2-2.9,0.5c-0.7,0.4-1,0.9-1,1.6s0.3,1.2,1,1.6
			C5.1,40.8,6.1,41,7.4,41z M7.4,39.8c-0.8,0-1.4-0.1-1.8-0.2C5.2,39.4,5,39.2,5,38.9s0.2-0.6,0.6-0.7s1-0.2,1.8-0.2
			s1.4,0.1,1.8,0.2s0.6,0.4,0.6,0.7s-0.2,0.6-0.6,0.7C8.8,39.7,8.2,39.8,7.4,39.8z M23,40.8V30h-1.5v10.8H23z M14.2,39
			c0.6-0.4,1.1-0.8,1.6-1.4c0.5-0.5,0.9-1.1,1.2-1.8c0.3,0.6,0.7,1.2,1.2,1.7c0.5,0.5,1,1,1.5,1.3l0,0l0.9-1c-0.9-0.6-1.6-1.2-2.1-2
			c-0.5-0.8-0.7-1.7-0.7-2.7l0,0V31h-1.5v2.1c0,1-0.3,1.9-0.8,2.8c-0.5,0.8-1.2,1.5-2.1,2.1l0,0L14.2,39z M34.3,40.8V30h-1.5v10.8
			H34.3z M28.1,38.8c0.5,0,1-0.1,1.4-0.3c0.4-0.2,0.7-0.5,1-0.8s0.4-0.8,0.6-1.2c0.1-0.5,0.2-1,0.2-1.6c0-0.6-0.1-1.1-0.2-1.6
			c-0.1-0.5-0.3-0.9-0.6-1.2s-0.6-0.6-1-0.8c-0.4-0.2-0.8-0.3-1.4-0.3s-1,0.1-1.4,0.3c-0.4,0.2-0.7,0.5-1,0.8s-0.4,0.8-0.6,1.2
			c-0.1,0.5-0.2,1-0.2,1.6c0,0.6,0.1,1.1,0.2,1.6c0.1,0.5,0.3,0.9,0.6,1.2s0.6,0.6,1,0.8C27.2,38.7,27.6,38.8,28.1,38.8z M28.1,37.6
			c-0.5,0-0.9-0.2-1.2-0.7c-0.3-0.5-0.4-1.1-0.4-1.9c0-0.8,0.1-1.5,0.4-1.9c0.3-0.5,0.7-0.7,1.2-0.7c0.5,0,0.9,0.2,1.2,0.7
			c0.3,0.5,0.4,1.1,0.4,1.9c0,0.8-0.1,1.5-0.4,1.9C29.1,37.3,28.7,37.6,28.1,37.6z M45.7,38.1V30h-1.5v8.1H45.7z M43.4,38v-7.8H42
			v2.6h-1v-2.2h-1.4v1.7h-1.7v-1.7h-1.4v4.6l0.8,0.9H41V34h1V38H43.4z M39.5,35h-1.7v-1.4h1.7V35z M46,40.8v-1.2h-6.5v-2.4H38v2.6
			l0.8,0.9H46z M56.2,36.8v-1.2h-6v-1.3H56v-1.2h-5.9V32h5.9v-1.2h-7.4v5l0.8,0.9H56.2z M57.6,39.1v-1.2H47v1.2H57.6z"/>
	</g>
	
		<linearGradient id="SVGID_1_" gradientUnits="userSpaceOnUse" x1="294.2015" y1="111.4126" x2="419.2141" y2="111.4126" gradientTransform="matrix(0.9101 -0.4145 0.4145 0.9101 -28.6441 163.6492)">
		<stop  offset="0" style="stop-color:#F2F6FE"/>
		<stop  offset="1" style="stop-color:#C2D5FF"/>
	</linearGradient>
	<path class="st2" d="M388.8,96c-2.6-5.7-0.1-12.3,5.6-14.9l-11.2-24.6l-113.8,51.8l11.2,24.6c5.7-2.6,12.3-0.1,14.9,5.6
		s0.1,12.3-5.6,14.9l11.2,24.6l113.8-51.8l-11.2-24.6C398.1,104.1,391.4,101.6,388.8,96z"/>
	
		<linearGradient id="SVGID_00000178202414930802810070000017056334044129422255_" gradientUnits="userSpaceOnUse" x1="277.9422" y1="111.4126" x2="388.1453" y2="111.4126" gradientTransform="matrix(0.9101 -0.4145 0.4145 0.9101 -28.6441 163.6492)">
		<stop  offset="9.719735e-03" style="stop-color:#1089FD"/>
		<stop  offset="1" style="stop-color:#0D59E9"/>
	</linearGradient>
	<polygon style="fill:url(#SVGID_00000178202414930802810070000017056334044129422255_);" points="388.2,142.5 287.9,188.2 
		253,111.5 353.3,65.8 	"/>
	<g class="st4">
		<path class="st5" d="M269.7,116.2l-1.2,0.6c-0.3-0.4-0.7-0.5-1.3-0.3c-0.6,0.3-0.8,0.6-0.6,0.9c0.2,0.4,0.6,0.3,1.8,0.1
			c1.3-0.3,2,0.1,2.4,0.8c0.4,1-0.2,2-1.4,2.6c-1.3,0.6-2.6,0.4-3.1-0.7l1.2-0.6c0.3,0.5,0.9,0.6,1.6,0.3c0.5-0.2,0.7-0.6,0.6-0.9
			c-0.2-0.4-0.6-0.4-1.6-0.1c-1.3,0.3-2.1,0.2-2.5-0.8c-0.4-0.9,0.3-1.9,1.5-2.5C268,115,269.2,115.3,269.7,116.2z"/>
		<path class="st5" d="M269.7,114.3l2.1-0.9c1.4-0.6,2.5-0.3,3.1,0.9c0.5,1.1,0,2.2-1.3,2.9l-0.9,0.4l0.6,1.4l-1.2,0.5L269.7,114.3z
			 M273,116.2c0.7-0.3,0.9-0.8,0.7-1.4c-0.3-0.6-0.8-0.7-1.5-0.4l-0.8,0.4l0.8,1.7L273,116.2z"/>
		<path class="st5" d="M274.6,112.1l4-1.8l0.5,1l-2.8,1.3l0.5,1l2.5-1.2l0.5,1l-2.5,1.2l0.5,1.1l2.8-1.3l0.5,1l-4,1.8L274.6,112.1z"
			/>
		<path class="st5" d="M280.3,112.6c-0.7-1.5,0-3.2,1.6-4c1.5-0.7,2.8-0.3,3.5,0.7l-1.2,0.5c-0.3-0.4-1.1-0.6-1.8-0.2
			c-1,0.4-1.4,1.5-0.9,2.4c0.4,0.9,1.5,1.3,2.4,0.9c0.8-0.3,1.2-1.1,1.1-1.6l1.2-0.5c0.3,1.1-0.3,2.6-1.8,3.2
			C282.7,114.7,281,114.1,280.3,112.6z"/>
		<path class="st5" d="M286.6,106.7l2.3,5.1l-1.2,0.5l-2.3-5.1L286.6,106.7z"/>
		<path class="st5" d="M292.7,108.8l-2.1,0.9l0.1,1.2l-1.2,0.6l-0.3-6l1.2-0.6l4.4,4.2l-1.3,0.6L292.7,108.8z M291.8,108l-1.5-1.5
			l0.1,2.1L291.8,108z"/>
		<path class="st5" d="M294.2,103.2l1.9,4.1l2.7-1.2l0.5,1l-3.9,1.8l-2.3-5.1L294.2,103.2z"/>
		<path class="st5" d="M304.8,104.5l-1.8-1.1l-1,0.4l0.7,1.6l-1.2,0.5l-2.3-5.1l2.1-1c1.4-0.6,2.5-0.3,2.9,0.8
			c0.3,0.7,0.2,1.4-0.3,2l2.1,1.3L304.8,104.5z M301.7,102.8l0.9-0.4c0.6-0.3,0.9-0.7,0.7-1.2s-0.7-0.6-1.3-0.3l-0.9,0.4
			L301.7,102.8z"/>
		<path class="st5" d="M304.4,98.5l4-1.8l0.5,1l-2.8,1.3l0.5,1l2.5-1.2l0.5,1L307,101l0.5,1.1l2.8-1.3l0.5,1l-4,1.8L304.4,98.5z"/>
		<path class="st5" d="M316.3,93.1l0.8,5.8l-1.2,0.5l-2.4-2.8l0.5,3.6l-1.2,0.5l-3.9-4.4l1.3-0.6l2.4,2.9l-0.6-3.8l1.2-0.6l2.4,2.9
			l-0.6-3.7L316.3,93.1z"/>
		<path class="st5" d="M321.3,95.8l-2.1,0.9l0.1,1.2l-1.2,0.6l-0.3-6l1.2-0.6l4.4,4.2l-1.3,0.6L321.3,95.8z M320.5,95l-1.5-1.5
			l0.1,2.1L320.5,95z"/>
		<path class="st5" d="M327.2,94.3l-1.8-1.1l-1,0.4l0.7,1.6l-1.2,0.5l-2.3-5.1l2.1-1c1.4-0.6,2.5-0.3,2.9,0.8c0.3,0.7,0.2,1.4-0.3,2
			l2.1,1.3L327.2,94.3z M324,92.6l0.9-0.4c0.6-0.3,0.9-0.7,0.7-1.2c-0.2-0.5-0.7-0.6-1.3-0.3l-0.9,0.4L324,92.6z"/>
		<path class="st5" d="M326.8,88.4l2.1-0.9c1.8-0.8,3.3-0.3,4,1.3c0.7,1.5,0.1,3-1.7,3.9l-2.1,0.9L326.8,88.4z M330.7,91.5
			c1-0.5,1.4-1.3,0.9-2.3c-0.4-1-1.3-1.3-2.4-0.8l-0.9,0.4l1.4,3.1L330.7,91.5z"/>
	</g>
	
		<linearGradient id="SVGID_00000004520869247263539150000017908638062648007306_" gradientUnits="userSpaceOnUse" x1="341.482" y1="160.1712" x2="466.4945" y2="160.1712" gradientTransform="matrix(0.969 0.2469 -0.2469 0.969 52.0639 -94.8005)">
		<stop  offset="0" style="stop-color:#F2F6FE"/>
		<stop  offset="1" style="stop-color:#C2D5FF"/>
	</linearGradient>
	<path style="fill:url(#SVGID_00000004520869247263539150000017908638062648007306_);" d="M453.6,172.8c1.5-6,7.7-9.7,13.7-8.1
		l6.7-26.2l-121.1-30.9l-6.7,26.2c6,1.5,9.7,7.7,8.1,13.7c-1.5,6-7.7,9.7-13.7,8.1l-6.7,26.2l121.1,30.9l6.7-26.2
		C455.8,185,452.1,178.9,453.6,172.8z"/>
	<g>
		<path class="st7" d="M373.7,136.9l-1.5-0.4c0.1-0.6-0.3-1.1-0.9-1.2c-0.7-0.2-1.1,0-1.2,0.4c-0.1,0.5,0.3,0.8,1.5,1.4
			c1.4,0.7,1.7,1.6,1.5,2.6c-0.3,1.3-1.7,1.7-3.1,1.4c-1.6-0.4-2.5-1.6-2.2-3l1.5,0.4c-0.1,0.7,0.3,1.2,1.2,1.4
			c0.6,0.1,1.1,0,1.2-0.5c0.1-0.5-0.2-0.8-1.3-1.4c-1.3-0.6-1.9-1.4-1.6-2.6c0.3-1.2,1.6-1.6,3.1-1.2
			C373.2,134.4,374,135.6,373.7,136.9z"/>
		<path class="st7" d="M375.1,135.1l2.5,0.6c1.7,0.4,2.4,1.6,2,3.1c-0.4,1.5-1.6,2.2-3.3,1.8l-1-0.3l-0.4,1.8l-1.4-0.4L375.1,135.1z
			 M376.6,139.2c0.8,0.2,1.4-0.1,1.6-0.8c0.2-0.7-0.2-1.2-1-1.4l-1-0.2l-0.6,2.2L376.6,139.2z"/>
		<path class="st7" d="M381,136.6l4.8,1.2l-0.3,1.3l-3.3-0.8l-0.3,1.3l3.1,0.8l-0.3,1.3l-3.1-0.8l-0.4,1.4l3.4,0.9l-0.3,1.3
			l-4.8-1.2L381,136.6z"/>
		<path class="st7" d="M385.5,141.3c0.5-2,2.3-3.1,4.3-2.6c1.8,0.4,2.7,1.8,2.6,3.3l-1.4-0.4c0-0.7-0.5-1.3-1.4-1.6
			c-1.2-0.3-2.3,0.4-2.6,1.6c-0.3,1.2,0.3,2.3,1.5,2.6c0.9,0.2,1.8-0.2,2.1-0.8l1.4,0.4c-0.5,1.3-2.1,2.2-3.9,1.8
			C386.1,145.1,385,143.3,385.5,141.3z"/>
		<path class="st7" d="M395.3,140.2l-1.7,6.6l-1.4-0.4l1.7-6.6L395.3,140.2z"/>
		<path class="st7" d="M399,146.8l-2.5-0.6l-0.8,1.2l-1.5-0.4l4.2-6l1.5,0.4l0.8,7.2l-1.6-0.4L399,146.8z M398.9,145.5l-0.2-2.5
			l-1.4,2.1L398.9,145.5z"/>
		<path class="st7" d="M404.5,142.6l-1.4,5.3l3.2,0.8L406,150l-4.6-1.2l1.7-6.6L404.5,142.6z"/>
		<path class="st7" d="M412.7,151.7l-0.7-2.4l-1.1-0.3l-0.5,2.1l-1.4-0.4l1.7-6.6l2.6,0.7c1.6,0.4,2.3,1.5,2,2.9
			c-0.2,0.9-0.8,1.5-1.7,1.7l0.9,2.8L412.7,151.7z M411.2,147.7l1.1,0.3c0.8,0.2,1.3,0,1.5-0.6c0.2-0.6-0.2-1.1-1-1.3l-1.1-0.3
			L411.2,147.7z"/>
		<path class="st7" d="M416.7,145.7l4.8,1.2l-0.3,1.3l-3.3-0.8l-0.3,1.3l3.1,0.8l-0.3,1.3l-3.1-0.8l-0.4,1.4l3.4,0.9l-0.3,1.3
			l-4.8-1.2L416.7,145.7z"/>
		<path class="st7" d="M430.9,149.3l-3.5,6.1l-1.4-0.4l-0.1-4.4l-2.2,3.9l-1.4-0.4L422,147l1.5,0.4l0,4.6l2.2-4l1.5,0.4l0,4.6l2.2-4
			L430.9,149.3z"/>
		<path class="st7" d="M433.3,155.6l-2.5-0.6l-0.8,1.2l-1.5-0.4l4.2-6l1.5,0.4l0.8,7.2l-1.6-0.4L433.3,155.6z M433.2,154.2l-0.2-2.5
			l-1.4,2.1L433.2,154.2z"/>
		<path class="st7" d="M439.5,158.5l-0.7-2.4l-1.1-0.3l-0.5,2.1l-1.4-0.4l1.7-6.6l2.6,0.7c1.6,0.4,2.3,1.5,2,2.9
			c-0.2,0.9-0.8,1.5-1.7,1.7l0.9,2.8L439.5,158.5z M437.9,154.5l1.1,0.3c0.8,0.2,1.3,0,1.5-0.6c0.2-0.6-0.2-1.1-1-1.3l-1.1-0.3
			L437.9,154.5z"/>
		<path class="st7" d="M443.5,152.5l2.5,0.6c2.1,0.5,3.1,2.2,2.6,4.2c-0.5,2-2.2,3-4.3,2.4l-2.5-0.6L443.5,152.5z M444.6,158.4
			c1.2,0.3,2.2-0.2,2.5-1.5c0.3-1.3-0.2-2.2-1.5-2.5l-1.1-0.3l-1,4L444.6,158.4z"/>
	</g>
	<g>
		<path class="st8" d="M391.3,161.2c-0.5,1.8-1.7,3.1-5.6,5.4l-3.2,1.9l6.9,1.8l-0.8,3.2l-12.7-3.2l0.6-2.2l7.3-4.2
			c2.7-1.6,3.5-2.5,3.7-3.5c0.3-1.3-0.2-2.3-1.9-2.7c-1.6-0.4-2.8,0.6-3.1,1.9l-3.9-1c0.8-3.3,4.1-5.2,7.9-4.2
			C390.3,155.3,392.1,158.1,391.3,161.2z"/>
		<path class="st8" d="M406,168.8c-1.5,5.9-5.2,8.2-9.1,7.2c-3.9-1-6-4.7-4.5-10.7c1.5-6,5.2-8.2,9.1-7.2
			C405.4,159.1,407.6,162.9,406,168.8z M396.2,166.3c-1,3.9-0.1,5.9,1.6,6.4c1.7,0.4,3.5-1,4.5-4.8c1-3.9,0.1-6-1.6-6.4
			C398.9,161,397.2,162.4,396.2,166.3z"/>
		<path class="st8" d="M417.7,166.7c-0.6,2.3-2.8,3.5-5.4,2.9c-2.6-0.7-3.9-2.8-3.3-5.1c0.6-2.3,2.8-3.6,5.4-2.9
			C417,162.2,418.3,164.4,417.7,166.7z M410.9,179.1l-3-0.8l16.1-14l3,0.8L410.9,179.1z M411.7,165.2c-0.2,0.9,0.3,1.8,1.3,2
			s1.9-0.3,2.1-1.2c0.2-0.9-0.3-1.8-1.3-2S411.9,164.3,411.7,165.2z M425.9,179c-0.6,2.3-2.8,3.5-5.4,2.9c-2.6-0.7-3.9-2.8-3.3-5.1
			c0.6-2.3,2.8-3.6,5.4-2.9C425.1,174.5,426.5,176.6,425.9,179z M419.8,177.4c-0.2,0.9,0.3,1.8,1.3,2c1,0.3,1.9-0.3,2.1-1.2
			c0.2-0.9-0.3-1.8-1.3-2C420.9,176,420,176.5,419.8,177.4z"/>
	</g>
</g>
</svg>
